/* XPM */
static char *result[] = {
/* columns rows colors chars-per-pixel */
"16 16 14 1 ",
"  c black",
". c gray13",
"X c gray18",
"o c #3C3C3C",
"O c #3E3E3E",
"+ c #434343",
"@ c #4E4E4E",
"# c #565656",
"$ c gray37",
"% c #5F5F5F",
"& c #646464",
"* c #656565",
"= c gray40",
"- c None",
/* pixels */
"----------------",
"----------------",
"----------------",
"----------------",
"----------------",
"----------------",
"----------------",
"-------  -------",
"------O.X+------",
"---#**@o%$%=&---",
"----------------",
"----------------",
"----------------",
"----------------",
"----------------",
"----------------"
};
