/* XPM */
static char *result[] = {
/* columns rows colors chars-per-pixel */
"32 32 49 1 ",
"  c black",
". c gray7",
"X c gray8",
"o c gray9",
"O c #181818",
"+ c #1D1D1D",
"@ c #222222",
"# c #272727",
"$ c #282828",
"% c #323232",
"& c gray20",
"* c #343434",
"= c #353535",
"- c gray21",
"; c #373737",
": c #3A3A3A",
"> c #3C3C3C",
", c gray24",
"< c #3F3F3F",
"1 c #414141",
"2 c #444444",
"3 c #494949",
"4 c #4B4B4B",
"5 c gray30",
"6 c gray31",
"7 c #515151",
"8 c #555555",
"9 c gray35",
"0 c #5A5A5A",
"q c #5B5B5B",
"w c gray37",
"e c #5F5F5F",
"r c #626262",
"t c #656565",
"y c #676767",
"u c #686868",
"i c DimGray",
"p c #6A6A6A",
"a c gray43",
"s c gray44",
"d c #727272",
"f c #747474",
"g c #7E7E7E",
"h c #818181",
"j c gray51",
"k c #848484",
"l c #868686",
"z c #8B8B8B",
"x c None",
/* pixels */
"xxxxxxxxxxxxxxxxxxxxxxxxxxxxxxxx",
"xxxxxxxxxxxxxxxxxxxxxxxxxxxxxxxx",
"xxxxxxxxxxxxxxxxxxxxxxxxxxxxxxxx",
"xxxxxxxxxxxxxxxxxxxxxxxxxxxxxxxx",
"xxxxxxxxxxxxxxxxxxxxxxxxxxxxxxxx",
"xxxxxxxxxxxxxxxxxxxxxxxxxxxxxxxx",
"xxxxxxxxxxxxxxxxxxxxxxxxxxxxxxxx",
"xxxxxxxxxxxxxxxxxxxxxxxxxxxxxxxx",
"xxxxxxxxxxxxxxxxxxxxxxxxxxxxxxxx",
"xxxxxxxxxxxxxxxxxxxxxxxxxxxxxxxx",
"xxxxxxxxxxxxxxxxxxxxxxxxxxxxxxxx",
"xxxxxxxxxxxxxxxxxxxxxxxxxxxxxxxx",
"xxxxxxxxxxxxxxxxxxxxxxxxxxxxxxxx",
"xxxxxxxxxxxxxxxxxxxxxxxxxxxxxxxx",
"xxxxxxxxxxxxxxx  xxxxxxxxxxxxxxx",
"xxxxxxxxxxxxxxx  xxxxxxxxxxxxxxx",
"xxxxxxxxxxxxxx    xxxxxxxxxxxxxx",
"xxxxxoypw72r76-=34695<q8eyXxxxxx",
"xxxxx$ijhffla7*0shugdtkglz+xxxxx",
"xxxxxxO#;1:x,@.#:*&<x<,->%xxxxxx",
"xxxxxxxxxxxxxxxxxxxxxxxxxxxxxxxx",
"xxxxxxxxxxxxxxxxxxxxxxxxxxxxxxxx",
"xxxxxxxxxxxxxxxxxxxxxxxxxxxxxxxx",
"xxxxxxxxxxxxxxxxxxxxxxxxxxxxxxxx",
"xxxxxxxxxxxxxxxxxxxxxxxxxxxxxxxx",
"xxxxxxxxxxxxxxxxxxxxxxxxxxxxxxxx",
"xxxxxxxxxxxxxxxxxxxxxxxxxxxxxxxx",
"xxxxxxxxxxxxxxxxxxxxxxxxxxxxxxxx",
"xxxxxxxxxxxxxxxxxxxxxxxxxxxxxxxx",
"xxxxxxxxxxxxxxxxxxxxxxxxxxxxxxxx",
"xxxxxxxxxxxxxxxxxxxxxxxxxxxxxxxx",
"xxxxxxxxxxxxxxxxxxxxxxxxxxxxxxxx"
};
